<svg width="102" height="102" viewBox="0 0 102 102" fill="none" xmlns="http://www.w3.org/2000/svg">
<path d="M79.8946 26.5374L79.6782 22.3287L75.4138 21.7984C75.0875 20.7807 74.6185 19.8278 74.0316 18.9592L76.3077 15.3968L73.1043 12.5724L69.7009 15.1406C68.756 14.6585 67.7367 14.2994 66.6661 14.0853L65.695 10L61.3812 10.2143L60.8346 14.3752C59.7913 14.6944 58.814 15.1526 57.9235 15.726L54.2738 13.508L51.3766 16.6354L54.0066 19.9539C53.5116 20.8761 53.1429 21.8708 52.9226 22.9155L48.7344 23.8657L48.9508 28.0743L53.2152 28.6046C53.5415 29.6223 54.0104 30.5753 54.5974 31.4439L52.3213 35.0062L55.5247 37.8307L58.9281 35.2624C59.873 35.7446 60.8923 36.1037 61.9629 36.3178L62.9336 40.4034L67.2474 40.1891L67.7941 36.0282C68.8374 35.709 69.8146 35.2508 70.7052 34.6774L74.3548 36.8954L77.2521 33.768L74.622 30.4495C75.117 29.5273 75.4858 28.5326 75.706 27.4879L79.8946 26.5374ZM64.6149 31.0461C61.3062 31.2104 58.4895 28.7269 58.3236 25.499C58.1575 22.2712 60.7052 19.5213 64.0137 19.357C67.3223 19.1926 70.139 21.6762 70.3051 24.904C70.4711 28.1318 67.9234 30.8818 64.6149 31.0461Z" fill="#7974E3"/>
<path d="M29.7231 55.7926L56.7633 67.4429L68.8031 40.4582L63.8328 27.9194L45.6539 20.087L29.7231 55.7926Z" fill="#F0F0FF"/>
<path d="M62.1345 40.4582L51.1699 65.0331L56.7631 67.4429L68.8029 40.4582L65.6774 32.5734L62.1345 40.4582Z" fill="#E8E8FF"/>
<path d="M63.8323 27.9196L59.9277 36.6061L68.8026 40.4583L63.8323 27.9196Z" fill="#CFCFFF"/>
<path d="M55.3735 52.903H76.7452V73.8375H55.3735V52.903Z" fill="#96E1FF"/>
<path d="M82 68.3466L76.7446 73.8376V52.9029L82 47.4119V68.3466Z" fill="#FDF486"/>
<path d="M76.745 52.9029H55.3735L60.6288 47.4119H82.0004L76.745 52.9029Z" fill="#FD6DC3"/>
<path d="M63.1913 88.3882L65.6608 85.9592L63.6559 83.1372C64.1034 82.3872 64.433 81.5878 64.6462 80.7645L68.0808 80.1689L68.0664 76.7228L64.6268 76.1057C64.4068 75.281 64.0705 74.4796 63.6169 73.7268L65.5984 70.9173L63.1088 68.4728L60.2514 70.4227C59.4848 69.9776 58.6689 69.6478 57.8295 69.4324L57.1985 66.0528L53.6918 66.0419L53.0888 69.4175C52.2512 69.6276 51.438 69.9523 50.6752 70.3927L47.8016 68.425L45.3321 70.854L47.3369 73.6761C46.8895 74.426 46.5599 75.2255 46.3467 76.0487L42.9121 76.6444L42.9264 80.0904L46.366 80.7075C46.5861 81.5322 46.9223 82.3336 47.376 83.0864L45.3944 85.896L47.8843 88.3404L50.7417 86.3906C51.5082 86.8357 52.3241 87.1655 53.1635 87.3809L53.7945 90.7604L57.3012 90.7714L57.9042 87.3958C58.7418 87.1856 59.555 86.8609 60.3179 86.4206L63.1913 88.3882ZM52.3936 81.4585C50.6605 79.757 50.6492 77.0071 52.3681 75.3163C54.0871 73.6256 56.8855 73.6343 58.6186 75.3358C60.3515 77.0372 60.3631 79.7872 58.6441 81.478C56.925 83.1687 54.1266 83.16 52.3936 81.4585Z" fill="#7974E3"/>
<path d="M16.25 22.9134C16.5699 22.9134 16.8898 22.7935 17.1341 22.5537C17.6224 22.0738 17.6225 21.2958 17.1342 20.8162L12.8708 16.6257C12.3825 16.1457 11.5908 16.1459 11.1026 16.6255C10.6143 17.1054 10.6142 17.8834 11.1025 18.3631L15.3659 22.5533C15.6098 22.7935 15.9299 22.9134 16.25 22.9134Z" fill="#FDF05B"/>
<path d="M7.27976 42.2708H1.25033C0.559814 42.2708 0 42.8207 0 43.4994C0 44.1782 0.559814 44.7281 1.25033 44.7281H7.27976C7.97027 44.7281 8.53009 44.1782 8.53009 43.4994C8.53009 42.8207 7.97027 42.2708 7.27976 42.2708Z" fill="#FDF05B"/>
<path d="M17.5152 64.2902C17.0269 63.8105 16.2352 63.8104 15.7471 64.2904L11.4838 68.4807C10.9955 68.9605 10.9957 69.7385 11.484 70.2182C11.728 70.458 12.0481 70.5779 12.368 70.5779C12.688 70.5779 13.0081 70.458 13.2523 70.218L17.5154 66.0277C18.0037 65.5479 18.0035 64.7699 17.5152 64.2902Z" fill="#FDF05B"/>
<path d="M38.1687 18.2333C37.9645 18.2333 37.7599 18.2349 37.5547 18.2398C23.9303 18.5567 12.8794 29.6208 12.7507 43.0626C12.658 52.7306 18.1151 61.1479 26.1696 65.4104V69.6231C26.1696 71.3433 27.5833 72.7378 29.3272 72.7378H38.1687V18.2333Z" fill="#FDF486"/>
<path d="M38.1691 72.7375H29.3276V79.608C29.3276 82.6941 31.8735 85.1959 35.014 85.1959H38.1691V72.7375Z" fill="#CFCFFF"/>
<path d="M38.2874 92C37.5969 92 37.0371 91.45 37.0371 90.7713V11.6484C37.0371 10.9696 37.5969 10.4197 38.2874 10.4197C38.978 10.4197 39.5378 10.9696 39.5378 11.6484V90.7713C39.5378 91.45 38.978 92 38.2874 92Z" fill="#FFD600"/>
<path d="M64.6456 80.7644L68.0801 80.1687L68.0658 76.7227L64.6262 76.1055C64.4062 75.2808 64.0699 74.4794 63.6163 73.7266L65.5978 70.9171L63.108 68.4727L60.2506 70.4223C59.5137 69.9944 58.731 69.6743 57.9258 69.4587C60.6622 71.6517 62.4106 74.9899 62.4106 78.7303C62.4106 81.9691 61.0983 84.905 58.9706 87.0586C59.4323 86.8828 59.883 86.671 60.3169 86.4205L63.1905 88.3882L65.66 85.9592L63.6551 83.1372C64.1027 82.387 64.4325 81.5877 64.6456 80.7644Z" fill="#6B64E8"/>
</svg>
