<svg width="48" height="56" viewBox="0 0 48 56" fill="none" xmlns="http://www.w3.org/2000/svg">
<path d="M0 23.3311C0 41.37 15.0401 56 33.6008 56V51.331C17.6967 51.331 4.80217 38.794 4.80217 23.3311H0Z" fill="#7974E3"/>
<path d="M33.6008 4.669C22.9957 4.669 14.3993 13.027 14.3993 23.331C14.3993 33.642 22.9957 42 33.6008 42V46.669C20.3462 46.669 9.60437 36.218 9.60437 23.331C9.59717 10.444 20.3462 0 33.6008 0V4.669Z" fill="#7974E3"/>
<path d="M33.6006 23.331V37.331C25.645 37.331 19.2013 31.059 19.2013 23.331C19.2013 15.6031 25.645 9.33105 33.6006 9.33105C41.5562 9.33105 47.9999 15.596 47.9999 23.331H33.6006Z" fill="#7974E3"/>
</svg>
