<svg width="48" height="48" viewBox="0 0 48 48" fill="none" xmlns="http://www.w3.org/2000/svg">
<path d="M0 0H22.002V22.002H0V0Z" fill="#7974E3"/>
<path d="M43.998 25.998H30C27.798 25.998 25.998 27.798 25.998 30V43.998C25.998 46.2 27.798 48 30 48H43.998C46.2 48 48 46.2 48 43.998V30C48 27.798 46.2 25.998 43.998 25.998Z" fill="#7974E3"/>
<path d="M47.9999 11.004C47.9999 17.076 43.0739 22.002 37.0019 22.002C30.9299 22.002 26.0039 17.076 26.0039 11.004C25.9979 4.926 30.9239 0 37.0019 0C43.0739 0 47.9999 4.926 47.9999 11.004Z" fill="#FDF486"/>
<path d="M12 25.998L0 48H24L12 25.998Z" fill="#FDF486"/>
</svg>
