<svg width="48" height="48" viewBox="0 0 48 48" fill="none" xmlns="http://www.w3.org/2000/svg">
<path d="M42 44H28C27.4696 44 26.9609 43.7893 26.5858 43.4142C26.2107 43.0391 26 42.5304 26 42V28C26 27.4696 26.2107 26.9609 26.5858 26.5858C26.9609 26.2107 27.4696 26 28 26H42C42.5304 26 43.0391 26.2107 43.4142 26.5858C43.7893 26.9609 44 27.4696 44 28V42C44 42.5304 43.7893 43.0391 43.4142 43.4142C43.0391 43.7893 42.5304 44 42 44Z" fill="#B2B1FF"/>
<path d="M15.828 35L21.414 29.414C21.7784 29.0368 21.9799 28.5316 21.9754 28.0072C21.9708 27.4828 21.7605 26.9812 21.3897 26.6103C21.0189 26.2395 20.5172 26.0292 19.9928 26.0246C19.4684 26.0201 18.9632 26.2217 18.586 26.586L13 32.172L7.41404 26.586C7.03684 26.2217 6.53163 26.0201 6.00724 26.0246C5.48284 26.0292 4.98122 26.2395 4.6104 26.6103C4.23959 26.9812 4.02925 27.4828 4.02469 28.0072C4.02014 28.5316 4.22172 29.0368 4.58604 29.414L10.172 35L4.58604 40.586C4.39502 40.7705 4.24266 40.9912 4.13784 41.2352C4.03302 41.4792 3.97785 41.7416 3.97554 42.0072C3.97323 42.2727 4.02384 42.5361 4.1244 42.7819C4.22496 43.0277 4.37347 43.251 4.56125 43.4388C4.74904 43.6265 4.97234 43.7751 5.21813 43.8756C5.46392 43.9762 5.72728 44.0268 5.99284 44.0245C6.2584 44.0222 6.52084 43.967 6.76485 43.8622C7.00886 43.7574 7.22955 43.605 7.41404 43.414L13 37.828L18.586 43.414C18.9632 43.7783 19.4684 43.9799 19.9928 43.9753C20.5172 43.9708 21.0189 43.7604 21.3897 43.3896C21.7605 43.0188 21.9708 42.5172 21.9754 41.9928C21.9799 41.4684 21.7784 40.9632 21.414 40.586L15.828 35ZM42 22H28C27.6591 22.0001 27.3238 21.9131 27.0259 21.7472C26.728 21.5813 26.4775 21.342 26.2982 21.052C26.1188 20.7621 26.0166 20.4311 26.0012 20.0905C25.9857 19.7499 26.0576 19.411 26.21 19.106L33.21 5.10597C33.3945 4.79553 33.6564 4.53838 33.9703 4.35979C34.2841 4.18119 34.639 4.08728 35 4.08728C35.3611 4.08728 35.716 4.18119 36.0298 4.35979C36.3437 4.53838 36.6056 4.79553 36.79 5.10597L43.79 19.106C43.9424 19.411 44.0144 19.7499 43.9989 20.0905C43.9835 20.4311 43.8813 20.7621 43.7019 21.052C43.5226 21.342 43.2721 21.5813 42.9742 21.7472C42.6763 21.9131 42.341 22.0001 42 22Z" fill="#FF3DBD"/>
<path d="M13 22C11.22 22 9.47991 21.4722 7.99987 20.4832C6.51983 19.4943 5.36628 18.0887 4.68509 16.4442C4.0039 14.7996 3.82567 12.99 4.17294 11.2442C4.5202 9.49836 5.37737 7.89472 6.63604 6.63604C7.89472 5.37737 9.49836 4.5202 11.2442 4.17294C12.99 3.82567 14.7996 4.0039 16.4442 4.68509C18.0887 5.36628 19.4943 6.51983 20.4832 7.99987C21.4722 9.47991 22 11.22 22 13C21.9974 15.3861 21.0483 17.6738 19.361 19.361C17.6738 21.0483 15.3861 21.9974 13 22Z" fill="#B2B1FF"/>
</svg>
