<svg xmlns="http://www.w3.org/2000/svg" width="20" height="20" viewBox="0 0 20 20" fill="none">
<path d="M13.492 1.6665H6.50866C3.47533 1.6665 1.66699 3.47484 1.66699 6.50817V13.4832C1.66699 16.5248 3.47533 18.3332 6.50866 18.3332H13.4837C16.517 18.3332 18.3253 16.5248 18.3253 13.4915V6.50817C18.3337 3.47484 16.5253 1.6665 13.492 1.6665ZM14.3753 10.2748C14.3753 10.6165 14.092 10.8998 13.7503 10.8998C13.4087 10.8998 13.1253 10.6165 13.1253 10.2748V7.75817L6.69199 14.1915C6.56699 14.3165 6.40866 14.3748 6.25033 14.3748C6.09199 14.3748 5.93366 14.3165 5.80866 14.1915C5.56699 13.9498 5.56699 13.5498 5.80866 13.3082L12.242 6.87484H9.72533C9.38366 6.87484 9.10033 6.5915 9.10033 6.24984C9.10033 5.90817 9.38366 5.62484 9.72533 5.62484H13.7503C14.092 5.62484 14.3753 5.90817 14.3753 6.24984V10.2748Z" fill="#191919"/>
</svg>