<svg width="12" height="8" viewBox="0 0 12 8" fill="none" xmlns="http://www.w3.org/2000/svg">
<path d="M5.99995 0.520535C6.13329 0.520535 6.26229 0.545982 6.38695 0.596875C6.51229 0.647768 6.61662 0.715625 6.69995 0.800446L11.3 5.48259C11.4833 5.6692 11.575 5.9067 11.575 6.19509C11.575 6.48348 11.4833 6.72098 11.3 6.90759C11.1166 7.0942 10.8833 7.1875 10.6 7.1875C10.3166 7.1875 10.0833 7.0942 9.89995 6.90759L5.99995 2.93795L2.09995 6.90759C1.91662 7.0942 1.68328 7.1875 1.39995 7.1875C1.11662 7.1875 0.883286 7.0942 0.699952 6.90759C0.516619 6.72098 0.424951 6.48348 0.424951 6.19509C0.424951 5.9067 0.516619 5.6692 0.699952 5.48259L5.29995 0.800446C5.39995 0.69866 5.50829 0.626732 5.62495 0.58466C5.74162 0.54191 5.86662 0.520534 5.99995 0.520535Z" fill="black"/>
</svg>
