<svg width="12" height="8" viewBox="0 0 12 8" fill="none" xmlns="http://www.w3.org/2000/svg">
<path d="M6.00005 7.47947C5.86672 7.47947 5.73772 7.45402 5.61305 7.40312C5.48772 7.35223 5.38338 7.28437 5.30005 7.19955L0.700048 2.51741C0.516715 2.3308 0.425049 2.0933 0.425049 1.80491C0.425049 1.51652 0.516715 1.27902 0.700048 1.09241C0.883382 0.905803 1.11672 0.8125 1.40005 0.8125C1.68338 0.8125 1.91672 0.905803 2.10005 1.09241L6.00005 5.06205L9.90005 1.09241C10.0834 0.905803 10.3167 0.8125 10.6 0.8125C10.8834 0.8125 11.1167 0.905803 11.3 1.09241C11.4834 1.27902 11.575 1.51652 11.575 1.80491C11.575 2.0933 11.4834 2.3308 11.3 2.51741L6.70005 7.19955C6.60005 7.30134 6.49172 7.37327 6.37505 7.41534C6.25838 7.45809 6.13338 7.47947 6.00005 7.47947Z" fill="black"/>
</svg>
