<svg width="237" height="16" viewBox="0 0 237 16" fill="none" xmlns="http://www.w3.org/2000/svg">
<path d="M0 1.72705V2.6295H2.37671H4.75343V9.11077V15.592H5.73689H6.72036V9.11077V2.6295H9.09707H11.4738V1.72705V0.82459H5.73689H0V1.72705Z" fill="white"/>
<path d="M91.9541 1.72729V2.62974H94.2489H96.5436V9.11101V15.5923H97.609H98.6744V9.11101V2.62974H101.051H103.428V1.72729V0.824834H97.691H91.9541V1.72729Z" fill="white"/>
<path d="M44.7481 3.44987C39.9947 4.45077 38.1425 9.91474 41.3223 13.5246C42.1911 14.5091 43.8958 15.3623 45.2726 15.51C46.6167 15.6577 48.3705 15.2803 49.6654 14.5911L50.6489 14.066V11.8017V9.52094H49.8293H49.0098V11.2274V12.9339L48.2394 13.3113C47.6165 13.6066 47.174 13.6887 46.1413 13.7051C44.994 13.7051 44.7317 13.6394 44.0597 13.262C43.109 12.6877 42.2402 11.6868 41.9944 10.85C40.7159 6.63308 45.2726 3.44987 48.9606 5.99315L49.5835 6.41977L50.108 5.79625C50.403 5.45168 50.6489 5.12351 50.6489 5.05788C50.6489 4.84457 49.436 4.1062 48.5344 3.77803C47.5346 3.38423 45.7643 3.23656 44.7481 3.44987Z" fill="white"/>
<path d="M120.803 3.58141C119.491 4.02443 118.967 4.33619 118.131 5.17301C116.082 7.22405 115.803 10.4565 117.459 12.9177C118.147 13.9186 118.819 14.4601 120.114 15.0672C120.901 15.4446 121.262 15.5102 122.524 15.4938C124.294 15.4938 125.49 15.0836 126.523 14.1483L127.195 13.5412L126.638 12.9013L126.097 12.2614L125.523 12.688C124.654 13.3607 123.851 13.6233 122.688 13.6233C121.409 13.6233 120.737 13.3772 119.852 12.5731C118.918 11.7199 118.508 10.7518 118.508 9.38994C118.508 7.37172 119.606 5.84575 121.442 5.30428C122.884 4.89407 124.589 5.28787 125.687 6.28878L126.064 6.64976L126.621 5.99343C126.933 5.63245 127.179 5.28787 127.195 5.20583C127.195 5.00893 125.753 4.04084 124.933 3.72908C123.802 3.26965 121.917 3.20402 120.803 3.58141Z" fill="white"/>
<path d="M162.108 3.53221C159.486 4.27058 157.732 6.37084 157.551 8.96335C157.42 11.0144 158.076 12.5896 159.633 14.0007C160.879 15.1 161.993 15.4938 163.911 15.5103C165.321 15.5103 165.567 15.461 166.534 15.0016C167.943 14.3124 168.829 13.5249 169.435 12.3599C171.14 9.17666 169.992 5.59965 166.796 4.00805C165.796 3.5158 165.37 3.41735 164.305 3.35172C163.452 3.30249 162.698 3.36812 162.108 3.53221ZM165.206 5.35353C167.042 5.895 168.353 7.92963 168.124 9.8658C167.681 13.5905 163.239 15.0836 160.748 12.327C159.945 11.4246 159.65 10.6698 159.65 9.40637C159.65 8.15934 159.895 7.4866 160.731 6.56774C161.944 5.22226 163.42 4.81205 165.206 5.35353Z" fill="white"/>
<path d="M186.039 3.49937C184.761 3.87677 184.023 4.30338 183.073 5.25506C180.516 7.79835 180.893 12.1958 183.843 14.3289C185.056 15.2149 186.056 15.5103 187.76 15.5103C189.678 15.4938 190.776 15.0836 192.088 13.853C195.415 10.7683 194.366 5.36992 190.104 3.7455C189.023 3.33529 187.039 3.22043 186.039 3.49937ZM189.613 5.56682C191.006 6.27238 191.793 7.51941 191.907 9.16024C191.989 10.4237 191.645 11.4246 190.826 12.3435C189.924 13.3279 189.121 13.6889 187.76 13.7053C186.793 13.7053 186.482 13.6233 185.728 13.2131C183.318 11.884 182.696 8.76644 184.417 6.68259C184.892 6.09189 185.793 5.534 186.695 5.23865C187.318 5.02535 188.924 5.20584 189.613 5.56682Z" fill="white"/>
<path d="M200.299 3.4993C198.365 4.05718 196.874 5.2878 196.07 7.02708C195.693 7.81468 195.628 8.19207 195.628 9.4391C195.628 10.7846 195.677 11.0307 196.169 12.0152C197.169 14.0498 199.086 15.3461 201.365 15.543C202.66 15.6578 203.971 15.3625 205.381 14.6733L206.528 14.099V11.7198V9.34065L205.676 9.38987L204.807 9.4391L204.758 11.2112L204.709 12.9833L203.987 13.3114C202.315 14.0498 200.48 13.8201 199.168 12.6879C196.841 10.7025 197.3 7.01067 200.054 5.53393C201.004 5.02527 203.037 5.04168 204.069 5.56674C204.479 5.78005 204.938 6.0754 205.118 6.22307C205.397 6.4692 205.446 6.45279 205.971 5.82928C206.266 5.46829 206.495 5.0909 206.479 5.00886C206.38 4.72992 205.397 4.13922 204.43 3.76183C203.283 3.33522 201.316 3.20395 200.299 3.4993Z" fill="white"/>
<path d="M229.918 3.51555C228.968 3.77808 228.017 4.50004 227.624 5.27123C227.411 5.68144 227.345 6.09165 227.378 6.84643C227.476 8.53648 228.148 9.16 230.754 10.0296C232.689 10.6696 233.246 10.9321 233.606 11.3915C234.262 12.1955 233.721 13.3113 232.557 13.6395C231.312 13.9676 229.279 13.4426 228.05 12.4745C227.82 12.294 227.558 12.1463 227.493 12.1463C227.411 12.1463 227.181 12.4745 226.984 12.8847C226.64 13.5902 226.64 13.623 226.935 13.9512C227.345 14.3942 229.001 15.1654 230.115 15.428C231.377 15.7233 233.082 15.5428 234.18 15.0013C235.311 14.4599 235.901 13.6066 236 12.4088C236.147 10.4891 235.311 9.52098 232.77 8.68416C231.902 8.40521 230.918 8.02782 230.59 7.86374C229.459 7.28945 229.164 6.37059 229.869 5.66503C230.64 4.89384 232.525 4.97588 234.262 5.84552L235.049 6.23932L235.475 5.38609C235.885 4.58208 235.885 4.53286 235.606 4.31955C234.475 3.48273 231.492 3.05611 229.918 3.51555Z" fill="white"/>
<path d="M14.4733 9.30766C13.0964 12.4581 11.9327 15.149 11.8671 15.3131C11.7687 15.5756 11.8507 15.6084 12.7686 15.5592L13.7848 15.51L14.3749 14.1481L14.965 12.8026L17.981 12.8354L20.9969 12.8847L21.587 14.2302L22.1607 15.592H23.2097H24.2424L23.8162 14.5583C23.5703 14.0004 22.4066 11.3259 21.2264 8.61852L19.0628 3.69603L18.0138 3.6468L16.9647 3.59758L14.4733 9.30766ZM19.1611 8.53648C19.7184 9.84914 20.161 10.9813 20.161 11.0469C20.161 11.1126 19.1611 11.1618 17.9482 11.1618C16.7189 11.1618 15.7354 11.0962 15.7354 11.0141C15.7354 10.9321 16.1124 9.9804 16.5713 8.91387C17.0303 7.84733 17.5056 6.73156 17.6368 6.41981C17.7843 6.07523 17.9318 5.91115 18.0138 6.0096C18.0957 6.09164 18.6038 7.22381 19.1611 8.53648Z" fill="white"/>
<path d="M26.3896 9.60326V15.5923H27.3731H28.3566L28.3894 11.2933L28.4385 6.99434L31.6348 11.2933L34.831 15.5759L35.7817 15.5923H36.716V9.60326V3.61423H35.8145H34.913L34.8802 7.99524L34.831 12.3763L31.5528 7.99524L28.2746 3.61423H27.3403H26.3896V9.60326Z" fill="white"/>
<path d="M54.0908 9.60326V15.5923H58.5164H62.942V14.6898V13.7874H59.4999H56.0578V12.0645V10.3416H59.0081H61.9585V9.52122V8.7008H59.0081H56.0414L56.0905 7.01075L56.1397 5.3371L59.4671 5.28788L62.7781 5.25506V4.43464V3.61423H58.4345H54.0908V9.60326Z" fill="white"/>
<path d="M66.0566 9.60301V15.592H66.9581H67.8597L67.8924 11.211L67.9416 6.83001L71.2198 11.211L74.498 15.592H75.4323H76.383V9.60301V3.61399H75.3995H74.4161L74.3833 7.91296L74.3341 12.2119L71.1379 7.91296L67.9416 3.63039L67.0073 3.61399H66.0566V9.60301Z" fill="white"/>
<path d="M78.5137 4.51644V5.4189H80.3987H82.2836V10.5055V15.592H83.2671H84.2506V10.5055V5.4189H86.1356H88.0206V4.51644V3.61399H83.2671H78.5137V4.51644Z" fill="white"/>
<path d="M105.559 9.60301V15.592H109.984H114.41V14.6896V13.7871H110.968H107.526V12.0643V10.3414H110.476H113.426V9.52097V8.70056H110.476H107.526V7.05973V5.4189L110.853 5.38608L114.164 5.33686L114.213 4.46722L114.262 3.61399H109.919H105.559V9.60301Z" fill="white"/>
<path d="M129.817 9.60301V15.592H130.801H131.784V13.0488V10.5055H134.981H138.177V13.0488V15.592H139.16H140.144V9.60301V3.61399H139.16H138.177V6.23931V8.86464H134.981H131.784V6.23931V3.61399H130.801H129.817V9.60301Z" fill="white"/>
<path d="M144.242 9.60301V15.592H145.226H146.209V11.2931V7.0105L149.422 11.2931L152.634 15.592H153.601H154.569V9.60301V3.61399H153.585H152.602L152.569 7.88014L152.52 12.1463L149.323 7.88014L146.127 3.61399H145.193H144.242V9.60301Z" fill="white"/>
<path d="M173.09 9.60301V15.592H176.696H180.302V14.6896V13.7871H177.761H175.221V8.70056V3.61399H174.155H173.09V9.60301Z" fill="white"/>
<path d="M209.971 9.60301V15.592H211.036H212.102V9.60301V3.61399H211.036H209.971V9.60301Z" fill="white"/>
<path d="M216.035 9.60301V15.592H220.461H224.886V14.6896V13.7871H221.444H218.002V12.0643V10.3414H220.952H223.903V9.52097V8.70056H220.952H218.002V7.05973V5.4189L221.329 5.38608L224.64 5.33686L224.69 4.46722L224.739 3.61399H220.395H216.035V9.60301Z" fill="white"/>
</svg>
