<svg width="34" height="34" viewBox="0 0 34 34" fill="none" xmlns="http://www.w3.org/2000/svg">
<path d="M11.7564 0.218212C10.8037 0.728336 10.3273 1.78259 10.5542 2.8822C10.6676 3.43767 10.8037 3.58504 16.7243 9.51382L22.7811 15.5786L20.7281 17.6191C19.4691 18.8661 18.5958 19.841 18.4597 20.1131C17.7791 21.5754 18.7432 23.2985 20.3311 23.4346C21.5221 23.5366 21.3066 23.7066 27.7036 17.3471C31.662 13.4021 33.6469 11.3503 33.7943 11.0442C34.146 10.2733 34.0439 9.29844 33.5108 8.57293C33.1932 8.14215 32.2631 7.70005 31.662 7.70005C30.7773 7.70005 30.4257 7.94944 28.2253 10.1373L26.127 12.2345L20.2291 6.32837C16.2706 2.36074 14.1837 0.354244 13.8774 0.206877C13.2763 -0.0765266 12.3122 -0.0651913 11.7564 0.218212Z" fill="#181818"/>
<path d="M12.6983 10.5909C12.2559 10.7269 11.4166 11.5205 6.30126 16.6217C2.34283 20.5667 0.346604 22.6412 0.199155 22.9473C-0.311244 24.0356 0.199155 25.4752 1.27666 25.9627C1.88914 26.2461 2.8192 26.2461 3.36363 25.9627C3.59048 25.838 4.70201 24.8177 5.82489 23.6955L7.86649 21.6436L13.8779 27.6518C20.0934 33.864 20.2522 34 21.1255 34C21.9422 34 22.997 33.2972 23.3146 32.5603C23.496 32.1182 23.5074 31.1886 23.3373 30.7465C23.2806 30.5765 20.513 27.7085 17.1898 24.387L11.1557 18.3562L13.2767 16.225C15.4885 14.0258 15.7493 13.6517 15.7493 12.8015C15.7493 11.2484 14.1841 10.1148 12.6983 10.5909Z" fill="#FF0000"/>
</svg>
