<svg width="109" height="8" viewBox="0 0 109 8" fill="none" xmlns="http://www.w3.org/2000/svg">
<path d="M0.200928 0.93457H5.46136V1.7814H3.28919V7.73441H2.3668V1.7814H0.204079V0.93457H0.200928Z" fill="#D20A0A"/>
<path d="M10.407 7.73403L9.86872 6.4748H7.08897L6.55065 7.73403H5.60938L8.03339 2.2312H8.97467L11.3798 7.73403H10.407ZM7.40378 5.70352H9.53817L8.47097 3.19451L7.40378 5.70352Z" fill="#D20A0A"/>
<path d="M12.3684 2.2312H13.2247L16.2626 6.27962V2.2312H17.1283V7.73403H16.2626L13.2436 3.69506V7.73403H12.3684V2.2312Z" fill="#D20A0A"/>
<path d="M22.7539 4.93561H23.5441V7.0039C23.2607 7.22741 22.9302 7.40685 22.5493 7.53907C22.1684 7.67129 21.7874 7.73739 21.4097 7.73739C20.8777 7.73739 20.3897 7.61147 19.949 7.36278C19.5051 7.11408 19.1557 6.77094 18.9007 6.33965C18.6425 5.90522 18.5166 5.42986 18.5166 4.91043C18.5166 4.391 18.6457 3.91878 18.907 3.49065C19.1651 3.06566 19.524 2.72881 19.9742 2.48012C20.4275 2.23457 20.9249 2.10864 21.4695 2.10864C21.8536 2.10864 22.2345 2.1779 22.6091 2.31641C22.9837 2.45493 23.3048 2.64382 23.5756 2.88937L23.0656 3.54416C22.8483 3.34583 22.5997 3.19158 22.3195 3.07825C22.0393 2.96492 21.756 2.9114 21.4695 2.9114C21.098 2.9114 20.7549 2.99955 20.4464 3.17584C20.1347 3.35213 19.8892 3.59453 19.7097 3.90304C19.5303 4.21155 19.439 4.5484 19.439 4.91357C19.439 5.28505 19.5303 5.62504 19.7129 5.93355C19.8955 6.24206 20.141 6.48446 20.4527 6.6639C20.7643 6.84334 21.1043 6.93464 21.4758 6.93464C21.6804 6.93464 21.8945 6.90001 22.1211 6.8276C22.3447 6.75834 22.5556 6.66075 22.7571 6.53798V4.93561H22.7539Z" fill="#D20A0A"/>
<path d="M25.1685 2.2312H29.113V3.02137H26.0751V4.56078H28.7982V5.35094H26.0751V6.94701H29.2106V7.73718H25.1716V2.2312H25.1685Z" fill="#D20A0A"/>
<path d="M30.6335 2.2312H31.4898L34.5277 6.27962V2.2312H35.3934V7.73403H34.5277L31.5087 3.69506V7.73403H30.6335V2.2312Z" fill="#D20A0A"/>
<path d="M36.363 2.2312H40.7578V3.03081H39.0169V7.73403H38.1134V3.03081H36.363V2.2312Z" fill="#D20A0A"/>
<path d="M42.5774 0.93457H47.8378V1.7814H45.6657V7.73441H44.7433V1.7814H42.5805V0.93457H42.5774Z" fill="black"/>
<path d="M48.8767 2.2312H52.8212V3.02137H49.7834V4.56078H52.5064V5.35094H49.7834V6.94701H52.9188V7.73718H48.8799V2.2312H48.8767Z" fill="black"/>
<path d="M57.5844 3.09418C57.3106 2.96826 57.0335 2.9053 56.7534 2.9053C56.3882 2.9053 56.0545 2.99344 55.7523 3.16974C55.45 3.34603 55.2108 3.58528 55.0345 3.89064C54.8582 4.196 54.7701 4.5297 54.7701 4.89488C54.7701 5.26005 54.8582 5.5969 55.0345 5.89911C55.2108 6.20448 55.45 6.44688 55.7523 6.62632C56.0545 6.80576 56.3882 6.89705 56.7534 6.89705C57.0304 6.89705 57.3043 6.83724 57.575 6.71761C57.8489 6.59798 58.0881 6.43743 58.3022 6.23281L58.8311 6.81835C58.5541 7.10168 58.2298 7.32204 57.8552 7.48574C57.4806 7.64944 57.0996 7.73129 56.7156 7.73129C56.1836 7.73129 55.6987 7.60537 55.2643 7.35667C54.8267 7.10797 54.4836 6.76483 54.2317 6.33355C53.9799 5.89911 53.8508 5.42375 53.8508 4.90432C53.8508 4.38489 53.9799 3.91268 54.2349 3.48454C54.4899 3.05955 54.8393 2.72271 55.2832 2.47401C55.7271 2.22846 56.2119 2.10254 56.7439 2.10254C57.128 2.10254 57.5057 2.17809 57.8741 2.3292C58.2424 2.48031 58.5603 2.69123 58.8311 2.95881L58.3022 3.61361C58.0976 3.39325 57.8583 3.2201 57.5844 3.09418Z" fill="black"/>
<path d="M60.0334 2.2312H60.9369V4.63633H63.8804V2.2312H64.7839V7.73403H63.8804L63.8898 5.4265H60.9369V7.73403H60.0334V2.2312Z" fill="black"/>
<path d="M66.6697 2.2312H67.526L70.5638 6.27962V2.2312H71.4296V7.73403H70.5638L67.5448 3.69506V7.73403H66.6697V2.2312Z" fill="black"/>
<path d="M77.2126 2.47719C77.6627 2.72274 78.0153 3.05958 78.2703 3.48772C78.5253 3.91271 78.6544 4.38807 78.6544 4.9075C78.6544 5.42693 78.5253 5.90229 78.264 6.33672C78.0027 6.76801 77.6501 7.11115 77.2063 7.35985C76.7592 7.60854 76.2681 7.73447 75.7298 7.73447C75.1915 7.73447 74.7004 7.60854 74.2534 7.35985C73.8063 7.11115 73.4569 6.76801 73.1988 6.33672C72.9406 5.90229 72.8147 5.42693 72.8147 4.9075C72.8147 4.38807 72.9438 3.91585 73.1988 3.48772C73.4538 3.06273 73.8063 2.72588 74.2534 2.47719C74.7004 2.23164 75.1915 2.10571 75.7298 2.10571C76.2681 2.10886 76.7624 2.23164 77.2126 2.47719ZM74.7508 3.17921C74.4422 3.3555 74.1967 3.59475 74.0141 3.90012C73.8315 4.20548 73.7402 4.53917 73.7402 4.90435C73.7402 5.26953 73.8315 5.60952 74.0141 5.91803C74.1967 6.22969 74.4422 6.47524 74.7508 6.65468C75.0593 6.83412 75.393 6.92541 75.7519 6.92541C76.1107 6.92541 76.4413 6.83412 76.7435 6.65468C77.0457 6.47524 77.285 6.22969 77.4613 5.91803C77.6375 5.60637 77.7257 5.26953 77.7257 4.90435C77.7257 4.53917 77.6375 4.20233 77.4613 3.90012C77.285 3.59475 77.0457 3.3555 76.7435 3.17921C76.4413 3.00291 76.1107 2.91477 75.7519 2.91477C75.3898 2.91477 75.0561 3.00291 74.7508 3.17921Z" fill="black"/>
<path d="M80.0396 2.2312H80.943V6.92498H83.3293V7.73403H80.0396V2.2312Z" fill="black"/>
<path d="M88.2057 2.47719C88.6559 2.72274 89.0085 3.05958 89.2635 3.48772C89.5185 3.91271 89.6475 4.38807 89.6475 4.9075C89.6475 5.42693 89.5185 5.90229 89.2572 6.33672C88.9959 6.76801 88.6433 7.11115 88.1994 7.35985C87.7524 7.60854 87.2613 7.73447 86.723 7.73447C86.1846 7.73447 85.6935 7.60854 85.2465 7.35985C84.7995 7.11115 84.4501 6.76801 84.1919 6.33672C83.9338 5.90229 83.8079 5.42693 83.8079 4.9075C83.8079 4.38807 83.9369 3.91585 84.1919 3.48772C84.4469 3.06273 84.7995 2.72588 85.2465 2.47719C85.6935 2.23164 86.1846 2.10571 86.723 2.10571C87.2613 2.10886 87.7555 2.23164 88.2057 2.47719ZM85.7439 3.17921C85.4354 3.3555 85.1899 3.59475 85.0073 3.90012C84.8247 4.20548 84.7334 4.53917 84.7334 4.90435C84.7334 5.26953 84.8247 5.60952 85.0073 5.91803C85.1899 6.22969 85.4354 6.47524 85.7439 6.65468C86.0524 6.83412 86.3861 6.92541 86.745 6.92541C87.1039 6.92541 87.4344 6.83412 87.7366 6.65468C88.0389 6.47524 88.2781 6.22969 88.4544 5.91803C88.6307 5.60637 88.7188 5.26953 88.7188 4.90435C88.7188 4.53917 88.6307 4.20233 88.4544 3.90012C88.2781 3.59475 88.0389 3.3555 87.7366 3.17921C87.4344 3.00291 87.1039 2.91477 86.745 2.91477C86.383 2.91477 86.0493 3.00291 85.7439 3.17921Z" fill="black"/>
<path d="M94.5994 4.93561H95.3895V7.0039C95.1062 7.22741 94.7757 7.40685 94.3947 7.53907C94.0138 7.67129 93.6329 7.73739 93.2551 7.73739C92.7231 7.73739 92.2352 7.61147 91.7944 7.36278C91.3506 7.11408 91.0011 6.77094 90.7461 6.33965C90.488 5.90522 90.3621 5.42986 90.3621 4.91043C90.3621 4.391 90.4911 3.91878 90.7524 3.49065C91.0137 3.06566 91.3694 2.72881 91.8196 2.48012C92.2729 2.23457 92.7703 2.10864 93.315 2.10864C93.699 2.10864 94.0799 2.1779 94.4546 2.31641C94.8292 2.45493 95.1503 2.64382 95.421 2.88937L94.911 3.54416C94.6938 3.34583 94.4451 3.19158 94.1649 3.07825C93.8848 2.96492 93.6014 2.9114 93.315 2.9114C92.9435 2.9114 92.6003 2.99955 92.2918 3.17584C91.9802 3.35213 91.7346 3.59453 91.5552 3.90304C91.3757 4.21155 91.2845 4.5484 91.2845 4.91357C91.2845 5.28505 91.3757 5.62504 91.5583 5.93355C91.7409 6.24206 91.9865 6.48446 92.2981 6.6639C92.6098 6.84334 92.9498 6.93464 93.3213 6.93464C93.5259 6.93464 93.7399 6.90001 93.9666 6.8276C94.1901 6.75834 94.401 6.66075 94.6025 6.53798V4.93561H94.5994Z" fill="black"/>
<path d="M97.0139 2.2312H97.9174V7.73403H97.0139V2.2312Z" fill="black"/>
<path d="M99.7937 2.2312H103.738V3.02137H100.7V4.56078H103.423V5.35094H100.7V6.94701H103.836V7.73718H99.7968V2.2312H99.7937Z" fill="black"/>
<path d="M107.714 3.04984C107.421 2.96169 107.163 2.91447 106.94 2.91447C106.644 2.91447 106.411 2.97114 106.238 3.08132C106.064 3.19465 105.979 3.34891 105.979 3.54723C105.979 3.79593 106.083 3.98482 106.288 4.11074C106.493 4.23666 106.807 4.35944 107.229 4.48221C107.613 4.60499 107.922 4.71832 108.152 4.8222C108.381 4.92609 108.58 5.08979 108.747 5.30386C108.914 5.51793 108.995 5.79811 108.995 6.14439C108.995 6.63864 108.803 7.02585 108.419 7.30918C108.035 7.59251 107.535 7.73102 106.918 7.73102C106.508 7.73102 106.102 7.65232 105.706 7.49492C105.309 7.33751 104.963 7.12659 104.667 6.8653L105.051 6.10662C105.306 6.35531 105.608 6.55364 105.954 6.69845C106.301 6.84327 106.628 6.91567 106.937 6.91567C107.277 6.91567 107.541 6.85271 107.736 6.72364C107.928 6.59457 108.026 6.41828 108.026 6.19476C108.026 6.01532 107.969 5.86736 107.859 5.74774C107.746 5.62811 107.607 5.53682 107.437 5.46756C107.267 5.40145 107.037 5.32589 106.751 5.2409C106.373 5.12442 106.068 5.01738 105.838 4.9135C105.608 4.80961 105.41 4.65536 105.246 4.44758C105.082 4.23981 105 3.96593 105 3.62594C105 3.15687 105.183 2.7854 105.548 2.51152C105.913 2.23449 106.401 2.09912 107.009 2.09912C107.355 2.09912 107.695 2.14949 108.029 2.24708C108.363 2.34782 108.655 2.48318 108.904 2.65633L108.548 3.42446C108.284 3.26391 108.007 3.14113 107.714 3.04984Z" fill="black"/>
</svg>
