<svg width="128" height="24" viewBox="0 0 128 24" fill="none" xmlns="http://www.w3.org/2000/svg">
<path d="M12.0667 0L14.7759 8.2918H23.5429L16.4502 13.4164L19.1594 21.7082L12.0667 16.5836L4.97409 21.7082L7.68324 13.4164L0.590588 8.2918H9.35758L12.0667 0Z" fill="#FCD444"/>
<path d="M38.0333 0L40.7424 8.2918H49.5094L42.4168 13.4164L45.1259 21.7082L38.0333 16.5836L30.9406 21.7082L33.6498 13.4164L26.5571 8.2918H35.3241L38.0333 0Z" fill="#FCD444"/>
<path d="M63.9998 0L66.709 8.2918H75.476L68.3833 13.4164L71.0925 21.7082L63.9998 16.5836L56.9072 21.7082L59.6163 13.4164L52.5237 8.2918H61.2907L63.9998 0Z" fill="#FCD444"/>
<path d="M89.9669 0L92.676 8.2918H101.443L94.3504 13.4164L97.0595 21.7082L89.9669 16.5836L82.8742 21.7082L85.5834 13.4164L78.4907 8.2918H87.2577L89.9669 0Z" fill="#FCD444"/>
<path d="M115.933 0L118.643 8.2918H127.41L120.317 13.4164L123.026 21.7082L115.933 16.5836L108.841 21.7082L111.55 13.4164L104.457 8.2918H113.224L115.933 0Z" fill="#FFEEB3"/>
<path d="M108.837 21.7082L115.93 16.5836V0L113.221 8.2918H104.454L111.547 13.4164L108.837 21.7082Z" fill="#FCD344"/>
</svg>
